<svg xmlns="http://www.w3.org/2000/svg" xmlns:svg="http://www.w3.org/2000/svg" id="svg2" width="230.5" height="90.5" version="1.1"><defs id="defs4"><marker style="overflow:visible" id="Arrow1Send" orient="auto" refX="0" refY="0"><path style="fill-rule:evenodd;stroke:#000;stroke-width:1pt;marker-start:none" id="path3721" d="M 0,0 5,-5 -12.5,0 5,5 0,0 z" transform="matrix(-0.2,0,0,-0.2,-1.2,0)"/></marker><marker style="overflow:visible" id="Arrow1Mend" orient="auto" refX="0" refY="0"><path style="fill-rule:evenodd;stroke:#000;stroke-width:1pt;marker-start:none" id="path3715" d="M 0,0 5,-5 -12.5,0 5,5 0,0 z" transform="matrix(-0.4,0,0,-0.4,-4,0)"/></marker><marker style="overflow:visible" id="Arrow1Mstart" orient="auto" refX="0" refY="0"><path style="fill-rule:evenodd;stroke:#000;stroke-width:1pt;marker-start:none" id="path3712" d="M 0,0 5,-5 -12.5,0 5,5 0,0 z" transform="matrix(0.4,0,0,0.4,4,0)"/></marker><marker style="overflow:visible" id="Arrow1Sstart" orient="auto" refX="0" refY="0"><path style="fill-rule:evenodd;stroke:#000;stroke-width:1pt;marker-start:none" id="path3718" d="M 0,0 5,-5 -12.5,0 5,5 0,0 z" transform="matrix(0.2,0,0,0.2,1.2,0)"/></marker><marker style="overflow:visible" id="Arrow1Lstart" orient="auto" refX="0" refY="0"><path style="fill-rule:evenodd;stroke:#000;stroke-width:1pt;marker-start:none" id="path3706" d="M 0,0 5,-5 -12.5,0 5,5 0,0 z" transform="matrix(0.8,0,0,0.8,10,0)"/></marker><marker id="Arrow1Lend" orient="auto" refX="0" refY="0" style="overflow:visible"><path id="path3709" d="M 0,0 5,-5 -12.5,0 5,5 0,0 z" transform="matrix(-0.8,0,0,-0.8,-10,0)" style="fill-rule:evenodd;stroke:#000;stroke-width:1pt;marker-start:none"/></marker><marker id="Arrow1LendX" orient="auto" refX="0" refY="0" style="overflow:visible"><path id="path4162" d="M 0,0 5,-5 -12.5,0 5,5 0,0 z" transform="matrix(-0.8,0,0,-0.8,-10,0)" style="fill:#00f;fill-rule:evenodd;stroke:#00f;stroke-width:1pt;marker-start:none"/></marker><marker id="Arrow1LendX-6" orient="auto" refX="0" refY="0" style="overflow:visible"><path id="path4162-6" d="M 0,0 5,-5 -12.5,0 5,5 0,0 z" transform="matrix(-0.8,0,0,-0.8,-10,0)" style="fill:#00f;fill-rule:evenodd;stroke:#00f;stroke-width:1pt;marker-start:none"/></marker><marker style="overflow:visible" id="Arrow1SendN" orient="auto" refX="0" refY="0"><path style="fill:#00f;fill-rule:evenodd;stroke:#00f;stroke-width:1pt;marker-start:none" id="path6211" d="M 0,0 5,-5 -12.5,0 5,5 0,0 z" transform="matrix(-0.2,0,0,-0.2,-1.2,0)"/></marker><marker style="overflow:visible" id="Arrow1SendI" orient="auto" refX="0" refY="0"><path style="fill:#00f;fill-rule:evenodd;stroke:#00f;stroke-width:1pt;marker-start:none" id="path6316" d="M 0,0 5,-5 -12.5,0 5,5 0,0 z" transform="matrix(-0.2,0,0,-0.2,-1.2,0)"/></marker><marker style="overflow:visible" id="Arrow1Mstart6" orient="auto" refX="0" refY="0"><path style="fill:#00f;fill-rule:evenodd;stroke:#00f;stroke-width:1pt;marker-start:none" id="path6425" d="M 0,0 5,-5 -12.5,0 5,5 0,0 z" transform="matrix(0.4,0,0,0.4,4,0)"/></marker><marker style="overflow:visible" id="Arrow1Mende" orient="auto" refX="0" refY="0"><path style="fill:#00f;fill-rule:evenodd;stroke:#00f;stroke-width:1pt;marker-start:none" id="path6428" d="M 0,0 5,-5 -12.5,0 5,5 0,0 z" transform="matrix(-0.4,0,0,-0.4,-4,0)"/></marker><marker style="overflow:visible" id="Arrow1Mstart6-6" orient="auto" refX="0" refY="0"><path style="fill:#00f;fill-rule:evenodd;stroke:#00f;stroke-width:1pt;marker-start:none" id="path6425-7" d="M 0,0 5,-5 -12.5,0 5,5 0,0 z" transform="matrix(0.4,0,0,0.4,4,0)"/></marker><marker style="overflow:visible" id="Arrow1Mende-9" orient="auto" refX="0" refY="0"><path style="fill:#00f;fill-rule:evenodd;stroke:#00f;stroke-width:1pt;marker-start:none" id="path6428-8" d="M 0,0 5,-5 -12.5,0 5,5 0,0 z" transform="matrix(-0.4,0,0,-0.4,-4,0)"/></marker></defs><metadata id="metadata7"/><g id="layer1" transform="translate(-59.75,-822.10974)"><rect id="rect4269" width="230" height="30" x="60" y="822.36" ry="8.004" style="opacity:.28048778;fill:#00f;fill-opacity:1;fill-rule:nonzero;stroke:#00f;stroke-width:.5;stroke-linecap:round;stroke-miterlimit:4;stroke-opacity:1;stroke-dasharray:none;stroke-dashoffset:0"/><text style="font-size:12px;font-style:normal;font-weight:400;fill:#000;fill-opacity:1;stroke:none;font-family:Bitstream Vera Sans" id="text2824" x="208.822" y="842.19" xml:space="preserve"><tspan id="tspan2826" x="208.822" y="842.19">Behavior</tspan></text><text style="font-size:12px;font-style:normal;font-weight:400;fill:#000;fill-opacity:1;stroke:none;font-family:Bitstream Vera Sans" id="text2824-0" x="85.096" y="842.19" xml:space="preserve"><tspan id="tspan2826-3" x="85.096" y="842.19">Model</tspan></text><path style="fill:#00f;stroke:#00f;stroke-width:2;stroke-linecap:butt;stroke-linejoin:miter;stroke-miterlimit:4;stroke-opacity:1;stroke-dasharray:none;marker-end:url(#Arrow1SendN)" id="path2929" d="m 135.85441,838.30988 60.89508,0 0,0"/><text id="text4236" x="144.709" y="834.191" xml:space="preserve" style="font-size:12px;font-style:normal;font-weight:400;line-height:125%;fill:#000;fill-opacity:1;stroke:none;font-family:Bitstream Vera Sans"><tspan style="font-size:10px;font-style:normal;font-variant:normal;font-weight:400;font-stretch:normal;text-align:start;line-height:125%;writing-mode:lr-tb;text-anchor:start;fill:#00f;fill-opacity:1;font-family:FreeSans;-inkscape-font-specification:FreeSans" id="tspan4238" x="144.709" y="834.191">derivation</tspan></text><rect id="rect4269-7" width="230" height="30" x="60" y="882.36" ry="8.004" style="opacity:.28048778;fill:#00f;fill-opacity:1;fill-rule:nonzero;stroke:#00f;stroke-width:.5;stroke-linecap:round;stroke-miterlimit:4;stroke-opacity:1;stroke-dasharray:none;stroke-dashoffset:0"/><text style="font-size:12px;font-style:normal;font-weight:400;fill:#000;fill-opacity:1;stroke:none;font-family:Bitstream Vera Sans" id="text2828" x="209.326" y="902.19" xml:space="preserve"><tspan id="tspan2830" x="209.326" y="902.19">Observable</tspan></text><text style="font-size:12px;font-style:normal;font-weight:400;fill:#000;fill-opacity:1;stroke:none;font-family:Bitstream Vera Sans" id="text2828-4" x="80" y="902.36" xml:space="preserve"><tspan id="tspan2830-0" x="80" y="902.36">System</tspan></text><path style="fill:#00f;stroke:#00f;stroke-width:2;stroke-linecap:butt;stroke-linejoin:miter;stroke-miterlimit:4;stroke-opacity:1;stroke-dasharray:none;marker-end:url(#Arrow1SendI)" id="path2929-1" d="m 135.79958,898.96 60.89508,0 0,0"/><text id="text4236-2" x="137.936" y="893.98" xml:space="preserve" style="font-size:12px;font-style:normal;font-weight:400;line-height:125%;fill:#000;fill-opacity:1;stroke:none;font-family:Bitstream Vera Sans"><tspan style="font-size:10px;font-style:normal;font-variant:normal;font-weight:400;font-stretch:normal;text-align:start;line-height:125%;writing-mode:lr-tb;text-anchor:start;fill:#00f;fill-opacity:1;font-family:FreeSans;-inkscape-font-specification:FreeSans" id="tspan4238-1" x="137.936" y="893.98">observation</tspan></text><path id="path4315" d="m 100,70 0,30" transform="translate(0,782.35975)" style="fill:none;stroke:#00f;stroke-width:1;stroke-linecap:butt;stroke-linejoin:miter;stroke-miterlimit:4;stroke-opacity:1;stroke-dasharray:1,1;stroke-dashoffset:0;marker-start:url(#Arrow1Mstart6);marker-end:url(#Arrow1Mende)"/><path id="path4315-6" d="m 240,852.35975 0,30" style="fill:none;stroke:#00f;stroke-width:1;stroke-linecap:butt;stroke-linejoin:miter;stroke-miterlimit:4;stroke-opacity:1;stroke-dasharray:1,1;stroke-dashoffset:0;marker-start:url(#Arrow1Mstart6);marker-end:url(#Arrow1Mende)"/><text id="text4236-2-3" x="102.659" y="870.98" xml:space="preserve" style="font-size:12px;font-style:normal;font-weight:400;line-height:125%;fill:#000;fill-opacity:1;stroke:none;font-family:Bitstream Vera Sans"><tspan style="font-size:10px;font-style:normal;font-variant:normal;font-weight:400;font-stretch:normal;text-align:start;line-height:125%;writing-mode:lr-tb;text-anchor:start;fill:#00f;fill-opacity:1;font-family:FreeSans;-inkscape-font-specification:FreeSans" id="tspan4238-1-8" x="102.659" y="870.98">abstraction</tspan></text><text id="text4236-2-3-3" x="241.859" y="870.78" xml:space="preserve" style="font-size:12px;font-style:normal;font-weight:400;line-height:125%;fill:#000;fill-opacity:1;stroke:none;font-family:Bitstream Vera Sans"><tspan style="font-size:10px;font-style:normal;font-variant:normal;font-weight:400;font-stretch:normal;text-align:start;line-height:125%;writing-mode:lr-tb;text-anchor:start;fill:#00f;fill-opacity:1;font-family:FreeSans;-inkscape-font-specification:FreeSans" id="tspan4238-1-8-5" x="241.859" y="870.78">analogy</tspan></text></g></svg>