<svg xmlns="http://www.w3.org/2000/svg" xmlns:svg="http://www.w3.org/2000/svg" id="svg2" width="356.616" height="90.817" version="1.1"><defs id="defs4"><marker style="overflow:visible" id="Arrow1Send" orient="auto" refX="0" refY="0"><path style="fill-rule:evenodd;stroke:#000;stroke-width:1pt;marker-start:none" id="path3721" d="M 0,0 5,-5 -12.5,0 5,5 0,0 z" transform="matrix(-0.2,0,0,-0.2,-1.2,0)"/></marker><marker style="overflow:visible" id="Arrow1Mend" orient="auto" refX="0" refY="0"><path style="fill-rule:evenodd;stroke:#000;stroke-width:1pt;marker-start:none" id="path3715" d="M 0,0 5,-5 -12.5,0 5,5 0,0 z" transform="matrix(-0.4,0,0,-0.4,-4,0)"/></marker><marker style="overflow:visible" id="Arrow1Mstart" orient="auto" refX="0" refY="0"><path style="fill-rule:evenodd;stroke:#000;stroke-width:1pt;marker-start:none" id="path3712" d="M 0,0 5,-5 -12.5,0 5,5 0,0 z" transform="matrix(0.4,0,0,0.4,4,0)"/></marker><marker style="overflow:visible" id="Arrow1Sstart" orient="auto" refX="0" refY="0"><path style="fill-rule:evenodd;stroke:#000;stroke-width:1pt;marker-start:none" id="path3718" d="M 0,0 5,-5 -12.5,0 5,5 0,0 z" transform="matrix(0.2,0,0,0.2,1.2,0)"/></marker><marker style="overflow:visible" id="Arrow1Lstart" orient="auto" refX="0" refY="0"><path style="fill-rule:evenodd;stroke:#000;stroke-width:1pt;marker-start:none" id="path3706" d="M 0,0 5,-5 -12.5,0 5,5 0,0 z" transform="matrix(0.8,0,0,0.8,10,0)"/></marker><marker id="Arrow1Lend" orient="auto" refX="0" refY="0" style="overflow:visible"><path id="path3709" d="M 0,0 5,-5 -12.5,0 5,5 0,0 z" transform="matrix(-0.8,0,0,-0.8,-10,0)" style="fill-rule:evenodd;stroke:#000;stroke-width:1pt;marker-start:none"/></marker><marker id="Arrow1LendX" orient="auto" refX="0" refY="0" style="overflow:visible"><path id="path4162" d="M 0,0 5,-5 -12.5,0 5,5 0,0 z" transform="matrix(-0.8,0,0,-0.8,-10,0)" style="fill:#00f;fill-rule:evenodd;stroke:#00f;stroke-width:1pt;marker-start:none"/></marker><marker id="Arrow1LendX-6" orient="auto" refX="0" refY="0" style="overflow:visible"><path id="path4162-6" d="M 0,0 5,-5 -12.5,0 5,5 0,0 z" transform="matrix(-0.8,0,0,-0.8,-10,0)" style="fill:#00f;fill-rule:evenodd;stroke:#00f;stroke-width:1pt;marker-start:none"/></marker><marker style="overflow:visible" id="Arrow1SendN" orient="auto" refX="0" refY="0"><path style="fill:#00f;fill-rule:evenodd;stroke:#00f;stroke-width:1pt;marker-start:none" id="path6211" d="M 0,0 5,-5 -12.5,0 5,5 0,0 z" transform="matrix(-0.2,0,0,-0.2,-1.2,0)"/></marker><marker style="overflow:visible" id="Arrow1SendI" orient="auto" refX="0" refY="0"><path style="fill:#00f;fill-rule:evenodd;stroke:#00f;stroke-width:1pt;marker-start:none" id="path6316" d="M 0,0 5,-5 -12.5,0 5,5 0,0 z" transform="matrix(-0.2,0,0,-0.2,-1.2,0)"/></marker><marker style="overflow:visible" id="Arrow1Mstart6" orient="auto" refX="0" refY="0"><path style="fill:#00f;fill-rule:evenodd;stroke:#00f;stroke-width:1pt;marker-start:none" id="path6425" d="M 0,0 5,-5 -12.5,0 5,5 0,0 z" transform="matrix(0.4,0,0,0.4,4,0)"/></marker><marker style="overflow:visible" id="Arrow1Mende" orient="auto" refX="0" refY="0"><path style="fill:#00f;fill-rule:evenodd;stroke:#00f;stroke-width:1pt;marker-start:none" id="path6428" d="M 0,0 5,-5 -12.5,0 5,5 0,0 z" transform="matrix(-0.4,0,0,-0.4,-4,0)"/></marker><marker style="overflow:visible" id="Arrow1Mstart6-6" orient="auto" refX="0" refY="0"><path style="fill:#00f;fill-rule:evenodd;stroke:#00f;stroke-width:1pt;marker-start:none" id="path6425-7" d="M 0,0 5,-5 -12.5,0 5,5 0,0 z" transform="matrix(0.4,0,0,0.4,4,0)"/></marker><marker style="overflow:visible" id="Arrow1Mende-9" orient="auto" refX="0" refY="0"><path style="fill:#00f;fill-rule:evenodd;stroke:#00f;stroke-width:1pt;marker-start:none" id="path6428-8" d="M 0,0 5,-5 -12.5,0 5,5 0,0 z" transform="matrix(-0.4,0,0,-0.4,-4,0)"/></marker><marker style="overflow:visible" id="Arrow1SendN-0" orient="auto" refX="0" refY="0"><path style="fill:#00f;fill-rule:evenodd;stroke:#00f;stroke-width:1pt;marker-start:none" id="path6211-7" d="M 0,0 5,-5 -12.5,0 5,5 0,0 z" transform="matrix(-0.2,0,0,-0.2,-1.2,0)"/></marker><marker style="overflow:visible" id="Arrow1SendI-7" orient="auto" refX="0" refY="0"><path style="fill:#00f;fill-rule:evenodd;stroke:#00f;stroke-width:1pt;marker-start:none" id="path6316-8" d="M 0,0 5,-5 -12.5,0 5,5 0,0 z" transform="matrix(-0.2,0,0,-0.2,-1.2,0)"/></marker><marker style="overflow:visible" id="Arrow1SendI-6" orient="auto" refX="0" refY="0"><path style="fill:#00f;fill-rule:evenodd;stroke:#00f;stroke-width:1pt;marker-start:none" id="path6316-7" d="M 0,0 5,-5 -12.5,0 5,5 0,0 z" transform="matrix(-0.2,0,0,-0.2,-1.2,0)"/></marker></defs><metadata id="metadata7"/><g id="layer1" transform="translate(-1.0297713,-822.10465)"><rect id="rect4269-7" width="176.376" height="30.062" x="1.249" y="882.641" ry="8.02" style="opacity:.28048778;fill:#00f;fill-opacity:1;fill-rule:nonzero;stroke:#00f;stroke-width:.43830046;stroke-linecap:round;stroke-miterlimit:4;stroke-opacity:1;stroke-dasharray:none;stroke-dashoffset:0"/><text style="font-size:12px;font-style:normal;font-weight:400;fill:#000;fill-opacity:1;stroke:none;font-family:Bitstream Vera Sans" id="text2828" x="104.354" y="902.19" xml:space="preserve"><tspan id="tspan2830" x="104.354" y="902.19">Observable</tspan></text><text style="font-size:12px;font-style:normal;font-weight:400;fill:#000;fill-opacity:1;stroke:none;font-family:Bitstream Vera Sans" id="text2828-4" x="6.282" y="902.36" xml:space="preserve"><tspan id="tspan2830-0" x="6.282" y="902.36">System A</tspan></text><path style="fill:#00f;stroke:#00f;stroke-width:1.40378153;stroke-linecap:butt;stroke-linejoin:miter;stroke-miterlimit:4;stroke-opacity:1;stroke-dasharray:none;marker-end:url(#Arrow1SendI)" id="path2929-1" d="m 68.463632,898.92399 30,0 0,0"/><path id="path4315" d="m 129.9848,852.67209 0,30" style="fill:none;stroke:#00f;stroke-width:1;stroke-linecap:butt;stroke-linejoin:miter;stroke-miterlimit:4;stroke-opacity:1;stroke-dasharray:1,1;stroke-dashoffset:0;marker-start:url(#Arrow1Mstart6);marker-end:url(#Arrow1Mende)"/><path id="path4315-6" d="m 215.63735,852.35975 0,30" style="fill:none;stroke:#00f;stroke-width:1;stroke-linecap:butt;stroke-linejoin:miter;stroke-miterlimit:4;stroke-opacity:1;stroke-dasharray:1,1;stroke-dashoffset:0;marker-start:url(#Arrow1Mstart6);marker-end:url(#Arrow1Mende)"/><rect id="rect4269-7-2" width="176.376" height="30.062" x="181.051" y="882.407" ry="8.02" style="opacity:.28048778;fill:#00f;fill-opacity:1;fill-rule:nonzero;stroke:#00f;stroke-width:.43830046;stroke-linecap:round;stroke-miterlimit:4;stroke-opacity:1;stroke-dasharray:none;stroke-dashoffset:0"/><text style="font-size:12px;font-style:normal;font-weight:400;fill:#000;fill-opacity:1;stroke:none;font-family:Bitstream Vera Sans" id="text2828-5" x="284.156" y="902.268" xml:space="preserve"><tspan id="tspan2830-5" x="284.156" y="902.268">Observable</tspan></text><text style="font-size:12px;font-style:normal;font-weight:400;fill:#000;fill-opacity:1;stroke:none;font-family:Bitstream Vera Sans" id="text2828-4-4" x="185.459" y="902.126" xml:space="preserve"><tspan id="tspan2830-0-7" x="185.459" y="902.126">System B</tspan></text><path style="fill:#00f;stroke:#00f;stroke-width:1.40378153;stroke-linecap:butt;stroke-linejoin:miter;stroke-miterlimit:4;stroke-opacity:1;stroke-dasharray:none;marker-end:url(#Arrow1SendI)" id="path2929-1-8" d="m 247.9529,898.69024 30,0 0,0"/><rect id="rect4269-7-2-7" width="153.604" height="30.091" x="88.388" y="822.309" ry="8.028" style="opacity:.28048778;fill:#00f;fill-opacity:1;fill-rule:nonzero;stroke:#00f;stroke-width:.4092263;stroke-linecap:round;stroke-miterlimit:4;stroke-opacity:1;stroke-dasharray:none;stroke-dashoffset:0"/><text style="font-size:12px;font-style:normal;font-weight:400;fill:#000;fill-opacity:1;stroke:none;font-family:Bitstream Vera Sans" id="text2828-5-4" x="179.326" y="842.185" xml:space="preserve"><tspan id="tspan2830-5-9" x="179.326" y="842.185">Behavior</tspan></text><text style="font-size:12px;font-style:normal;font-weight:400;fill:#000;fill-opacity:1;stroke:none;font-family:Bitstream Vera Sans" id="text2828-4-4-0" x="98.433" y="842.355" xml:space="preserve"><tspan id="tspan2830-0-7-4" x="98.433" y="842.355">Model</tspan></text><path style="fill:#00f;stroke:#00f;stroke-width:1.40378153;stroke-linecap:butt;stroke-linejoin:miter;stroke-miterlimit:4;stroke-opacity:1;stroke-dasharray:none;marker-end:url(#Arrow1SendI)" id="path2929-1-8-7" d="m 141.24937,838.91892 30,0 0,0"/><text id="text4236" x="71.966" y="871.252" xml:space="preserve" style="font-size:12px;font-style:normal;font-weight:400;line-height:125%;fill:#000;fill-opacity:1;stroke:none;font-family:Bitstream Vera Sans"><tspan id="tspan7007" x="71.966" y="871.252" style="font-size:10px;font-style:normal;font-variant:normal;font-weight:400;font-stretch:normal;text-align:start;line-height:125%;writing-mode:lr-tb;text-anchor:start;fill:#00f;fill-opacity:1;font-family:FreeSans;-inkscape-font-specification:FreeSans">membership</tspan></text><text id="text4236-5" x="219.395" y="870.277" xml:space="preserve" style="font-size:12px;font-style:normal;font-weight:400;line-height:125%;fill:#000;fill-opacity:1;stroke:none;font-family:Bitstream Vera Sans"><tspan id="tspan7007-0" x="219.395" y="870.277" style="font-size:10px;font-style:normal;font-variant:normal;font-weight:400;font-stretch:normal;text-align:start;line-height:125%;writing-mode:lr-tb;text-anchor:start;fill:#00f;fill-opacity:1;font-family:FreeSans;-inkscape-font-specification:FreeSans">membership</tspan></text></g></svg>